<?xml version="1.0" encoding="UTF-8" standalone="no"?>
<svg
   version="1.1"
   width="512"
   height="512"
   x="0"
   y="0"
   viewBox="0 0 512 512"
   style="enable-background:new 0 0 512 512"
   xml:space="preserve"
   class=""
   id="svg187"
   sodipodi:docname="logo_label_mono.svg"
   inkscape:version="1.1.1 (3bf5ae0d25, 2021-09-20)"
   xmlns:inkscape="http://www.inkscape.org/namespaces/inkscape"
   xmlns:sodipodi="http://sodipodi.sourceforge.net/DTD/sodipodi-0.dtd"
   xmlns="http://www.w3.org/2000/svg"
   xmlns:svg="http://www.w3.org/2000/svg"><defs
     id="defs191" /><sodipodi:namedview
     id="namedview189"
     pagecolor="#ffffff"
     bordercolor="#666666"
     borderopacity="1.0"
     inkscape:pageshadow="2"
     inkscape:pageopacity="0.0"
     inkscape:pagecheckerboard="0"
     showgrid="false"
     inkscape:zoom="1.578125"
     inkscape:cx="451.48515"
     inkscape:cy="240.15842"
     inkscape:window-width="1920"
     inkscape:window-height="1046"
     inkscape:window-x="-11"
     inkscape:window-y="-11"
     inkscape:window-maximized="1"
     inkscape:current-layer="g183"
     showguides="true"><inkscape:grid
       type="xygrid"
       id="grid35318"
       spacingx="3"
       spacingy="3" /></sodipodi:namedview><rect
     width="384"
     height="384"
     fill="#9fc8f2"
     shape="square"
     id="rect101"
     x="64"
     y="46"
     style="fill:#2dc8f2;fill-opacity:0;stroke-width:0.75" /><g
     transform="matrix(0.74,0,0,0.74,66.56,66.56)"
     id="g185">
<g
   id="g183"><g
   aria-label="Rendre l'utile agréable"
   id="text17134"
   style="font-size:50.4505px;line-height:1.25;font-family:'Brush Script MT';-inkscape-font-specification:'Brush Script MT';fill:#495f7a;stroke-width:1.35135"><path
     d="m 28.626477,469.41995 v 13.64725 h -4.015348 v -32.96034 h 8.54801 q 2.167795,0 3.670471,0.17244 1.52731,0.14781 2.783646,0.49268 3.448764,0.9361 5.271683,3.20243 1.822918,2.24169 1.822918,5.61656 0,1.99535 -0.640485,3.57193 -0.640484,1.57658 -1.798284,2.73438 -1.1578,1.1578 -2.783646,1.89682 -1.601212,0.73902 -3.571935,1.0839 v 0.0985 L 48.67858,483.0672 H 43.628603 L 33.479381,469.41995 Z m 0,-15.69188 v 12.07067 h 3.966079 q 1.847553,0 3.153156,-0.12317 1.305604,-0.12317 2.340234,-0.44341 2.093892,-0.64049 3.227058,-2.04463 1.133166,-1.40414 1.133166,-3.67047 -0.02463,-2.11852 -1.083898,-3.39949 -1.059263,-1.30561 -2.93145,-1.87219 -0.886825,-0.27097 -2.118527,-0.39414 -1.231701,-0.12317 -3.128522,-0.12317 z"
     style="font-family:Corbel;-inkscape-font-specification:Corbel"
     id="path22953" /><path
     d="m 62.153397,462.32534 q -1.305604,0 -2.438769,0.51732 -1.108532,0.51731 -1.946089,1.40414 -0.837557,0.88682 -1.354872,2.09389 -0.517314,1.18243 -0.640485,2.53731 h 11.824337 q 0,-1.37951 -0.369511,-2.56194 -0.344876,-1.20707 -1.034629,-2.0939 -0.689753,-0.88682 -1.699749,-1.3795 -1.009995,-0.51732 -2.340233,-0.51732 z m 2.093893,18.03212 q 1.896821,0 3.448765,-0.29561 1.576578,-0.32024 3.128522,-0.88683 v 3.17779 q -1.256336,0.61585 -3.103888,0.96073 -1.847553,0.36951 -3.96608,0.36951 -2.512671,0 -4.729734,-0.64048 -2.192429,-0.64049 -3.842909,-2.06926 -1.650481,-1.42878 -2.611208,-3.71974 -0.936093,-2.3156 -0.936093,-5.56729 0,-3.20243 0.886825,-5.54266 0.886825,-2.36487 2.364867,-3.94145 1.478042,-1.57657 3.399497,-2.36486 1.921455,-0.78829 4.015347,-0.78829 1.970723,0 3.670471,0.66512 1.724383,0.64048 2.980718,2.04462 1.256336,1.40414 1.970723,3.6212 0.739021,2.21707 0.739021,5.32095 0,0.29561 0,0.51732 0,0.19707 -0.02463,0.93609 H 55.57611 q 0,2.2417 0.665119,3.81828 0.689753,1.55194 1.847553,2.5373 1.182433,0.96073 2.759011,1.40414 1.576579,0.44342 3.399497,0.44342 z"
     style="font-family:Corbel;-inkscape-font-specification:Corbel"
     id="path22955" /><path
     d="m 81.786721,462.91656 h 0.0739 q 0.640485,-0.81292 1.40414,-1.50268 0.788289,-0.71438 1.749016,-1.2317 0.960728,-0.54195 2.093893,-0.83755 1.1578,-0.29561 2.512672,-0.29561 1.601212,0 3.005352,0.44341 1.40414,0.44341 2.438769,1.42877 1.03463,0.98536 1.625846,2.58658 0.615851,1.57658 0.615851,3.89217 v 15.66725 h -3.818275 v -15.05139 q 0,-3.02999 -1.182434,-4.36023 -1.157799,-1.33024 -3.399496,-1.33024 -1.970723,0 -3.818275,1.10854 -1.847553,1.08389 -3.177791,3.00535 V 483.0672 H 78.091616 V 459.66487 H 81.0477 Z"
     style="font-family:Corbel;-inkscape-font-specification:Corbel"
     id="path22957" /><path
     d="m 107.33222,471.61237 q 0,2.01999 0.44341,3.67048 0.46805,1.62584 1.33024,2.78364 0.86219,1.13317 2.11852,1.74902 1.25634,0.61585 2.88219,0.61585 1.20706,0 2.19243,-0.32024 0.98536,-0.32025 1.74901,-0.81293 0.78829,-0.49268 1.33024,-1.03463 0.56658,-0.56658 0.88682,-1.03463 v -12.24311 q -1.18243,-1.20707 -2.73437,-1.92146 -1.55195,-0.73902 -3.35023,-0.73902 -1.0839,0 -2.29097,0.41878 -1.18243,0.39415 -2.21706,1.45341 -1.01,1.05926 -1.67511,2.85755 -0.66512,1.77365 -0.66512,4.55729 z m -3.99072,0.0493 q 0,-2.43877 0.46805,-4.31095 0.49268,-1.89682 1.28097,-3.30096 0.78829,-1.40414 1.84755,-2.34024 1.05927,-0.96072 2.19243,-1.55194 1.13317,-0.59122 2.29097,-0.83756 1.18243,-0.27097 2.21706,-0.27097 2.14316,0 3.71974,0.71438 1.57658,0.71439 2.83291,2.0939 h 0.0739 v -14.46018 h 3.81828 v 35.67008 h -2.88218 l -0.78829,-2.61121 h -0.0985 q -0.44341,0.56658 -1.03463,1.1578 -0.59121,0.56658 -1.40414,1.03463 -0.78829,0.46805 -1.84755,0.73902 -1.03463,0.29561 -2.41413,0.29561 -1.92146,0 -3.76901,-0.64048 -1.84755,-0.66512 -3.30096,-2.0939 -1.42878,-1.45341 -2.3156,-3.71974 -0.88683,-2.29096 -0.88683,-5.56729 z"
     style="font-family:Corbel;-inkscape-font-specification:Corbel"
     id="path22959" /><path
     d="m 144.55424,462.76876 h -0.29561 q -1.35487,0 -2.66048,0.24634 -1.3056,0.24634 -2.4634,0.76365 -1.13317,0.49268 -2.06926,1.2317 -0.91146,0.73902 -1.52731,1.74902 v 16.30773 h -3.81828 v -23.40233 h 2.95609 l 0.73902,3.71974 h 0.0739 q 0.56658,-0.91146 1.37951,-1.69975 0.83755,-0.78829 1.87218,-1.37951 1.03463,-0.59121 2.26633,-0.91146 1.23171,-0.34487 2.58658,-0.34487 0.24634,0 0.49268,0.0246 0.27097,0 0.46805,0.0246 z"
     style="font-family:Corbel;-inkscape-font-specification:Corbel"
     id="path22961" /><path
     d="m 157.78271,462.32534 q -1.3056,0 -2.43877,0.51732 -1.10853,0.51731 -1.94608,1.40414 -0.83756,0.88682 -1.35488,2.09389 -0.51731,1.18243 -0.64048,2.53731 h 11.82433 q 0,-1.37951 -0.36951,-2.56194 -0.34487,-1.20707 -1.03463,-2.0939 -0.68975,-0.88682 -1.69974,-1.3795 -1.01,-0.51732 -2.34024,-0.51732 z m 2.0939,18.03212 q 1.89682,0 3.44876,-0.29561 1.57658,-0.32024 3.12852,-0.88683 v 3.17779 q -1.25633,0.61585 -3.10388,0.96073 -1.84756,0.36951 -3.96608,0.36951 -2.51268,0 -4.72974,-0.64048 -2.19243,-0.64049 -3.84291,-2.06926 -1.65048,-1.42878 -2.61121,-3.71974 -0.93609,-2.3156 -0.93609,-5.56729 0,-3.20243 0.88683,-5.54266 0.88682,-2.36487 2.36486,-3.94145 1.47805,-1.57657 3.3995,-2.36486 1.92145,-0.78829 4.01535,-0.78829 1.97072,0 3.67047,0.66512 1.72438,0.64048 2.98072,2.04462 1.25633,1.40414 1.97072,3.6212 0.73902,2.21707 0.73902,5.32095 0,0.29561 0,0.51732 0,0.19707 -0.0246,0.93609 h -16.06139 q 0,2.2417 0.66512,3.81828 0.68975,1.55194 1.84755,2.5373 1.18243,0.96073 2.75901,1.40414 1.57658,0.44342 3.3995,0.44342 z"
     style="font-family:Corbel;-inkscape-font-specification:Corbel"
     id="path22963" /><path
     d="m 184.06723,483.0672 v -35.67008 h 3.81827 v 35.67008 z"
     style="font-family:Corbel;-inkscape-font-specification:Corbel"
     id="path22965" /><path
     d="m 194.85694,450.10686 h 3.81828 v 12.16922 h -3.81828 z"
     style="font-family:Corbel;-inkscape-font-specification:Corbel"
     id="path22967" /><path
     d="m 214.68732,483.68305 q -1.82291,0 -3.27632,-0.39414 -1.45341,-0.39415 -2.56194,-1.10854 -1.0839,-0.71438 -1.84755,-1.69974 -0.76366,-1.01 -1.20707,-2.19243 -0.34488,-0.88683 -0.49268,-1.94609 -0.14781,-1.05926 -0.14781,-2.3156 v -14.36164 h 3.81828 v 14.33701 q 0,1.94608 0.51731,3.25169 0.59122,1.47804 1.89682,2.34023 1.33024,0.83756 3.37487,0.83756 2.16779,0 3.4734,-0.9361 1.33023,-0.93609 1.89682,-2.51267 0.41877,-1.20706 0.41877,-2.98071 v -14.33701 h 3.81828 v 14.38627 q 0,1.18244 -0.1478,2.21707 -0.12317,1.00999 -0.41878,1.87218 -0.44342,1.20707 -1.2317,2.2417 -0.76366,1.01 -1.89683,1.74902 -1.13316,0.73902 -2.63584,1.13316 -1.47804,0.41878 -3.35023,0.41878 z"
     style="font-family:Corbel;-inkscape-font-specification:Corbel"
     id="path22969" /><path
     d="m 243.85402,483.11647 q -0.49268,0.19707 -1.50268,0.36951 -1.00999,0.17244 -2.41413,0.19707 -1.84755,0 -3.20243,-0.46805 -1.35487,-0.44341 -2.26633,-1.28097 -0.88682,-0.86219 -1.33023,-2.06925 -0.44342,-1.20707 -0.44342,-2.68511 v -14.23848 h -4.50802 v -3.27632 h 4.50802 v -6.40485 h 3.81828 v 6.40485 h 6.99606 v 3.27632 h -6.99606 v 13.64726 q 0,0.81292 0.2217,1.50267 0.24634,0.68976 0.73903,1.20707 0.51731,0.49268 1.3056,0.78829 0.78829,0.27098 1.89682,0.27098 0.76366,0 1.60121,-0.12317 0.86219,-0.12317 1.57658,-0.32025 z"
     style="font-family:Corbel;-inkscape-font-specification:Corbel"
     id="path22971" /><path
     d="m 249.27351,483.0672 v -23.40233 h 3.81828 v 23.40233 z m -0.0985,-28.84645 v -4.26169 h 4.01535 v 4.26169 z"
     style="font-family:Corbel;-inkscape-font-specification:Corbel"
     id="path22973" /><path
     d="m 260.97468,483.0672 v -35.67008 h 3.81828 v 35.67008 z"
     style="font-family:Corbel;-inkscape-font-specification:Corbel"
     id="path22975" /><path
     d="m 281.59336,462.32534 q -1.3056,0 -2.43877,0.51732 -1.10853,0.51731 -1.94609,1.40414 -0.83756,0.88682 -1.35487,2.09389 -0.51731,1.18243 -0.64049,2.53731 h 11.82434 q 0,-1.37951 -0.36951,-2.56194 -0.34488,-1.20707 -1.03463,-2.0939 -0.68975,-0.88682 -1.69975,-1.3795 -1.00999,-0.51732 -2.34023,-0.51732 z m 2.09389,18.03212 q 1.89682,0 3.44877,-0.29561 1.57658,-0.32024 3.12852,-0.88683 v 3.17779 q -1.25634,0.61585 -3.10389,0.96073 -1.84755,0.36951 -3.96608,0.36951 -2.51267,0 -4.72973,-0.64048 -2.19243,-0.64049 -3.84291,-2.06926 -1.65048,-1.42878 -2.61121,-3.71974 -0.93609,-2.3156 -0.93609,-5.56729 0,-3.20243 0.88682,-5.54266 0.88683,-2.36487 2.36487,-3.94145 1.47804,-1.57657 3.3995,-2.36486 1.92145,-0.78829 4.01534,-0.78829 1.97073,0 3.67047,0.66512 1.72439,0.64048 2.98072,2.04462 1.25634,1.40414 1.97073,3.6212 0.73902,2.21707 0.73902,5.32095 0,0.29561 0,0.51732 0,0.19707 -0.0246,0.93609 h -16.06139 q 0,2.2417 0.66512,3.81828 0.68975,1.55194 1.84755,2.5373 1.18244,0.96073 2.75902,1.40414 1.57657,0.44342 3.39949,0.44342 z"
     style="font-family:Corbel;-inkscape-font-specification:Corbel"
     id="path22977" /><path
     d="m 321.32806,480.48063 h -0.0985 q -0.46805,0.59121 -1.18244,1.18243 -0.71438,0.56658 -1.65048,1.03463 -0.93609,0.44341 -2.04462,0.71439 -1.10853,0.27097 -2.36487,0.27097 -1.69975,0 -3.12852,-0.51731 -1.40414,-0.49268 -2.43877,-1.45341 -1.01,-0.98536 -1.57658,-2.3895 -0.56658,-1.40414 -0.56658,-3.17779 0,-1.74902 0.61585,-3.12853 0.64048,-1.3795 1.77365,-2.34023 1.13317,-0.96073 2.70974,-1.47804 1.60122,-0.51732 3.52267,-0.51732 1.82292,0.0246 3.37486,0.32025 1.55195,0.29561 2.75901,0.73902 h 0.0985 v -1.62585 q 0,-0.96073 -0.12317,-1.69975 -0.12317,-0.73902 -0.41878,-1.3056 -0.64048,-1.18243 -2.04462,-1.94609 -1.40414,-0.78829 -3.79364,-0.78829 -1.77365,0 -3.35023,0.34488 -1.55195,0.32024 -3.10389,0.91146 v -3.20243 q 0.59122,-0.29561 1.37951,-0.54195 0.81292,-0.27097 1.69974,-0.44341 0.88683,-0.19707 1.87219,-0.29561 0.98536,-0.0985 1.97072,-0.0985 3.5473,0 5.789,1.25633 2.26633,1.25634 3.25169,3.3256 0.36951,0.78829 0.51732,1.74901 0.17244,0.9361 0.17244,2.06926 v 15.61798 h -3.20243 z m -0.19707,-7.68582 q -1.05926,-0.29561 -2.51267,-0.56659 -1.45341,-0.27097 -3.20242,-0.2956 -2.43877,0 -3.81828,1.03463 -1.37951,1.03463 -1.37951,3.17779 0,1.08389 0.34488,1.89682 0.34488,0.81292 0.93609,1.35487 0.61585,0.51731 1.42878,0.78829 0.83756,0.24634 1.77365,0.24634 1.2317,0 2.29096,-0.34488 1.05927,-0.36951 1.87219,-0.86219 0.83756,-0.49268 1.40414,-0.98536 0.59122,-0.49268 0.86219,-0.76366 z"
     style="font-family:Corbel;-inkscape-font-specification:Corbel"
     id="path22979" /><path
     d="m 334.97533,471.51384 q 0,2.75901 0.66512,4.50803 0.66512,1.74901 1.67511,2.73437 1.03463,0.96073 2.2417,1.33024 1.20707,0.34488 2.29096,0.34488 1.77365,0 3.3256,-0.71439 1.55194,-0.71439 2.73438,-1.94609 v -12.24311 q -0.32025,-0.44341 -0.88683,-1.01 -0.56658,-0.56658 -1.33024,-1.03463 -0.73902,-0.49268 -1.69974,-0.81292 -0.96073,-0.34488 -2.0939,-0.34488 -1.69975,0 -3.00535,0.68976 -1.28097,0.66512 -2.16779,1.87218 -0.8622,1.20707 -1.30561,2.90682 -0.44341,1.67511 -0.44341,3.71974 z m 6.42948,-12.46482 q 1.52731,0.0246 2.66048,0.39414 1.13316,0.36951 1.94609,0.93609 0.81292,0.54195 1.28097,1.0839 0.49268,0.54195 0.66511,0.86219 h 0.0985 l 0.78829,-2.66047 h 2.88218 v 24.78184 q 0,2.70974 -0.88682,4.7051 -0.88683,2.01999 -2.48804,3.35022 -1.60121,1.33024 -3.86754,1.97073 -2.2417,0.66512 -4.97608,0.66512 -2.3156,0 -4.13852,-0.41878 -1.82291,-0.39415 -2.85754,-0.96073 v -3.22706 q 0.83755,0.34488 1.62584,0.56658 0.78829,0.24634 1.62585,0.39415 0.83756,0.17244 1.69975,0.24634 0.88682,0.0739 1.94609,0.0739 4.11388,0 6.30631,-1.92145 2.19243,-1.92146 2.19243,-5.8629 v -3.12853 h -0.0739 q -1.25633,1.37951 -2.93145,2.0939 -1.65048,0.68975 -3.79364,0.68975 -0.98536,0 -2.11852,-0.22171 -1.13317,-0.2217 -2.26633,-0.73902 -1.13317,-0.54195 -2.1678,-1.40414 -1.03463,-0.88682 -1.82292,-2.19243 -0.78829,-1.33023 -1.28097,-3.12852 -0.46804,-1.79828 -0.46804,-4.16315 0,-3.27633 0.88682,-5.66583 0.88683,-2.41413 2.34023,-3.99071 1.45341,-1.57658 3.3256,-2.34023 1.87219,-0.78829 3.86754,-0.78829 z"
     style="font-family:Corbel;-inkscape-font-specification:Corbel"
     id="path22981" /><path
     d="m 371.95101,462.76876 h -0.29561 q -1.35487,0 -2.66047,0.24634 -1.30561,0.24634 -2.46341,0.76365 -1.13316,0.49268 -2.06926,1.2317 -0.91146,0.73902 -1.52731,1.74902 v 16.30773 h -3.81827 v -23.40233 h 2.95608 l 0.73902,3.71974 h 0.0739 q 0.56658,-0.91146 1.3795,-1.69975 0.83756,-0.78829 1.87219,-1.37951 1.03463,-0.59121 2.26633,-0.91146 1.2317,-0.34487 2.58657,-0.34487 0.24634,0 0.49268,0.0246 0.27098,0 0.46805,0.0246 z"
     style="font-family:Corbel;-inkscape-font-specification:Corbel"
     id="path22983" /><path
     d="m 390.62359,446.78127 -3.96608,8.59728 h -3.20243 l 3.02999,-8.59728 z m -12.46482,12.8836 z m 7.02069,2.66047 q -1.3056,0 -2.43876,0.51732 -1.10854,0.51731 -1.94609,1.40414 -0.83756,0.88682 -1.35487,2.09389 -0.51732,1.18243 -0.64049,2.53731 h 11.82434 q 0,-1.37951 -0.36951,-2.56194 -0.34488,-1.20707 -1.03463,-2.0939 -0.68976,-0.88682 -1.69975,-1.3795 -1.01,-0.51732 -2.34024,-0.51732 z m 2.0939,18.03212 q 1.89682,0 3.44876,-0.29561 1.57658,-0.32024 3.12852,-0.88683 v 3.17779 q -1.25633,0.61585 -3.10388,0.96073 -1.84756,0.36951 -3.96608,0.36951 -2.51267,0 -4.72974,-0.64048 -2.19243,-0.64049 -3.84291,-2.06926 -1.65048,-1.42878 -2.6112,-3.71974 -0.9361,-2.3156 -0.9361,-5.56729 0,-3.20243 0.88683,-5.54266 0.88682,-2.36487 2.36487,-3.94145 1.47804,-1.57657 3.39949,-2.36486 1.92146,-0.78829 4.01535,-0.78829 1.97072,0 3.67047,0.66512 1.72438,0.64048 2.98072,2.04462 1.25633,1.40414 1.97072,3.6212 0.73902,2.21707 0.73902,5.32095 0,0.29561 0,0.51732 0,0.19707 -0.0246,0.93609 h -16.06139 q 0,2.2417 0.66512,3.81828 0.68975,1.55194 1.84755,2.5373 1.18243,0.96073 2.75901,1.40414 1.57658,0.44342 3.3995,0.44342 z"
     style="font-family:Corbel;-inkscape-font-specification:Corbel"
     id="path22985" /><path
     d="m 414.81421,480.48063 h -0.0985 q -0.46804,0.59121 -1.18243,1.18243 -0.71439,0.56658 -1.65048,1.03463 -0.93609,0.44341 -2.04463,0.71439 -1.10853,0.27097 -2.36486,0.27097 -1.69975,0 -3.12853,-0.51731 -1.40414,-0.49268 -2.43877,-1.45341 -1.00999,-0.98536 -1.57657,-2.3895 -0.56659,-1.40414 -0.56659,-3.17779 0,-1.74902 0.61585,-3.12853 0.64049,-1.3795 1.77366,-2.34023 1.13316,-0.96073 2.70974,-1.47804 1.60121,-0.51732 3.52267,-0.51732 1.82291,0.0246 3.37486,0.32025 1.55194,0.29561 2.75901,0.73902 h 0.0985 v -1.62585 q 0,-0.96073 -0.12317,-1.69975 -0.12317,-0.73902 -0.41878,-1.3056 -0.64049,-1.18243 -2.04463,-1.94609 -1.40414,-0.78829 -3.79364,-0.78829 -1.77365,0 -3.35023,0.34488 -1.55194,0.32024 -3.10389,0.91146 v -3.20243 q 0.59122,-0.29561 1.37951,-0.54195 0.81292,-0.27097 1.69975,-0.44341 0.88682,-0.19707 1.87219,-0.29561 0.98536,-0.0985 1.97072,-0.0985 3.5473,0 5.789,1.25633 2.26633,1.25634 3.25169,3.3256 0.36951,0.78829 0.51731,1.74901 0.17244,0.9361 0.17244,2.06926 v 15.61798 h -3.20242 z m -0.19707,-7.68582 q -1.05927,-0.29561 -2.51268,-0.56659 -1.4534,-0.27097 -3.20242,-0.2956 -2.43877,0 -3.81827,1.03463 -1.37951,1.03463 -1.37951,3.17779 0,1.08389 0.34488,1.89682 0.34487,0.81292 0.93609,1.35487 0.61585,0.51731 1.42877,0.78829 0.83756,0.24634 1.77365,0.24634 1.23171,0 2.29097,-0.34488 1.05926,-0.36951 1.87218,-0.86219 0.83756,-0.49268 1.40414,-0.98536 0.59122,-0.49268 0.8622,-0.76366 z"
     style="font-family:Corbel;-inkscape-font-specification:Corbel"
     id="path22987" /><path
     d="m 442.82312,471.2675 q 0,-2.78365 -0.66512,-4.50803 -0.64049,-1.74902 -1.67512,-2.70974 -1.00999,-0.98537 -2.16779,-1.35488 -1.1578,-0.36951 -2.3156,-0.36951 -1.77365,0 -3.35023,0.73902 -1.55194,0.73903 -2.75901,1.92146 v 12.24311 q 0.34487,0.46805 0.88682,1.03463 0.56659,0.54195 1.33024,1.03463 0.76366,0.46805 1.69975,0.81293 0.96073,0.32024 2.09389,0.32024 1.69975,0 2.98072,-0.66512 1.3056,-0.66512 2.1678,-1.87219 0.88682,-1.2317 1.33023,-2.90681 0.44342,-1.69975 0.44342,-3.71974 z m 3.99071,-0.29561 q 0,3.27633 -0.88683,5.66583 -0.88682,2.3895 -2.34023,3.96608 -1.45341,1.55194 -3.32559,2.3156 -1.87219,0.76365 -3.86755,0.76365 -1.50267,0 -2.66047,-0.39414 -1.13317,-0.36951 -1.94609,-0.88683 -0.78829,-0.54195 -1.28097,-1.0839 -0.46805,-0.54195 -0.66512,-0.86219 h -0.0739 l -0.81293,2.61121 h -2.88218 v -35.67008 h 3.81828 v 14.46018 h 0.0739 q 1.25634,-1.33024 2.93145,-2.06926 1.67511,-0.73902 3.81828,-0.73902 0.98536,0 2.11852,0.2217 1.1578,0.22171 2.26633,0.76366 1.13317,0.54195 2.1678,1.42877 1.03463,0.88683 1.82292,2.21707 0.78829,1.3056 1.25633,3.12852 0.46805,1.79828 0.46805,4.16315 z"
     style="font-family:Corbel;-inkscape-font-specification:Corbel"
     id="path22989" /><path
     d="m 453.0955,483.0672 v -35.67008 h 3.81828 v 35.67008 z"
     style="font-family:Corbel;-inkscape-font-specification:Corbel"
     id="path22991" /><path
     d="m 473.71419,462.32534 q -1.3056,0 -2.43877,0.51732 -1.10853,0.51731 -1.94608,1.40414 -0.83756,0.88682 -1.35488,2.09389 -0.51731,1.18243 -0.64048,2.53731 h 11.82434 q 0,-1.37951 -0.36952,-2.56194 -0.34487,-1.20707 -1.03462,-2.0939 -0.68976,-0.88682 -1.69975,-1.3795 -1.01,-0.51732 -2.34024,-0.51732 z m 2.0939,18.03212 q 1.89682,0 3.44876,-0.29561 1.57658,-0.32024 3.12852,-0.88683 v 3.17779 q -1.25633,0.61585 -3.10388,0.96073 -1.84756,0.36951 -3.96608,0.36951 -2.51268,0 -4.72974,-0.64048 -2.19243,-0.64049 -3.84291,-2.06926 -1.65048,-1.42878 -2.61121,-3.71974 -0.93609,-2.3156 -0.93609,-5.56729 0,-3.20243 0.88683,-5.54266 0.88682,-2.36487 2.36486,-3.94145 1.47805,-1.57657 3.3995,-2.36486 1.92146,-0.78829 4.01535,-0.78829 1.97072,0 3.67047,0.66512 1.72438,0.64048 2.98072,2.04462 1.25633,1.40414 1.97072,3.6212 0.73902,2.21707 0.73902,5.32095 0,0.29561 0,0.51732 0,0.19707 -0.0246,0.93609 h -16.06139 q 0,2.2417 0.66512,3.81828 0.68975,1.55194 1.84755,2.5373 1.18243,0.96073 2.75901,1.40414 1.57658,0.44342 3.3995,0.44342 z"
     style="font-family:Corbel;-inkscape-font-specification:Corbel"
     id="path22993" /></g>
	<g
   id="g123"
   transform="translate(0,-24.324326)">
		<g
   id="g121">
			<g
   id="g119">
				<g
   id="g117">
					<g
   id="g115">
						<g
   id="g113">
							<g
   id="g111">
								<g
   id="g109">
									<g
   id="g107">
										<g
   id="g105">
											<circle
   style="fill:#9fc8f2;fill-opacity:0"
   cx="256"
   cy="256"
   r="256"
   fill="#9fc8f2"
   data-original="#00c8c8"
   class=""
   id="circle103" />
										</g>
									</g>
								</g>
							</g>
						</g>
					</g>
				</g>
			</g>
		</g>
	</g>
	<path
   style="fill:#9fc8f0;fill-opacity:0"
   d="m 514.7027,231.6757 c 0,-11.765 -0.811,-23.338 -2.347,-34.682 l -123.98,-123.97903 -21.063,32.93803 -45.944,-45.943025 -192.34,330.328025 94.992,94.992 c 11.344,1.535 22.917,2.346 34.682,2.346 141.385,0 256,-114.615 256,-256 z"
   fill="#9fc8f0"
   data-original="#00b5b0"
   class=""
   id="path125" />
	<g
   id="g129"
   transform="matrix(0.76669502,0,0,0.76669502,52.514329,-62.499672)">
		<rect
   x="126.327"
   y="97.338997"
   width="259.34601"
   height="317.32199"
   fill="#495f7a"
   data-original="#495f7a"
   class=""
   id="rect127" />
	</g>
	<g
   id="g133"
   transform="matrix(0.76669502,0,0,0.76669502,52.514329,-62.499672)">
		<rect
   x="255.905"
   y="97.338997"
   width="129.769"
   height="317.32199"
   fill="#495f7a"
   data-original="#31465b"
   class=""
   id="rect131" />
	</g>
	<g
   id="g137"
   transform="matrix(0.76669502,0,0,0.76669502,52.514329,-62.499672)">
		<rect
   x="160.33299"
   y="97.338997"
   width="191.33299"
   height="284.06699"
   fill="#ffffff"
   data-original="#ffffff"
   class=""
   id="rect135" />
	</g>
	<g
   id="g141"
   transform="matrix(0.76669502,0,0,0.76669502,52.514329,-62.499672)">
		<rect
   x="255.905"
   y="97.338997"
   width="95.762001"
   height="284.06699"
   fill="#ffffff"
   data-original="#e9edf5"
   class=""
   id="rect139" />
	</g>
	<g
   id="g145"
   transform="matrix(0.76669502,0,0,0.76669502,52.514329,-62.499672)">
		<rect
   x="219.033"
   y="284.37701"
   width="73.934998"
   height="73.933998"
   fill="#00c8c8"
   data-original="#dce1eb"
   class=""
   id="rect143" />
	</g>
	<g
   id="g149"
   transform="matrix(0.76669502,0,0,0.76669502,52.514329,-62.499672)">
		<rect
   x="255.905"
   y="284.37701"
   width="37.063"
   height="73.934998"
   fill="#00c8c1"
   data-original="#cdd2e1"
   class=""
   id="rect147" />
	</g>
	<g
   id="g153"
   transform="matrix(0.76669502,0,0,0.76669502,52.514329,-62.499672)">
		<polygon
   points="285.286,271.674 306.499,292.887 239.166,360.222 205.501,326.556 226.714,305.343 239.166,317.795 "
   fill="#495f7a"
   data-original="#ff583e"
   class=""
   id="polygon151" />
	</g>
	<g
   id="g157"
   transform="matrix(0.76669502,0,0,0.76669502,52.514329,-62.499672)">
		<polygon
   points="285.286,271.674 255.905,301.056 255.905,343.482 306.499,292.887 "
   fill="#495f7a"
   data-original="#ef2a1b"
   class=""
   id="polygon155" />
	</g>
	<g
   id="g161"
   transform="matrix(0.76669502,0,0,0.76669502,52.514329,-62.499672)">
		<rect
   x="193.33299"
   y="84.333"
   width="125.333"
   height="46.667"
   fill="#495f7a"
   data-original="#ff583e"
   class=""
   id="rect159" />
	</g>
	<g
   id="g165"
   transform="matrix(0.76669502,0,0,0.76669502,52.514329,-62.499672)">
		<rect
   x="255.905"
   y="84.333"
   width="62.762001"
   height="46.667"
   fill="#495f7a"
   data-original="#ef2a1b"
   class=""
   id="rect163" />
	</g>
	<g
   id="g169"
   transform="matrix(0.76669502,0,0,0.76669502,52.514329,-62.499672)">
		<rect
   x="187.16701"
   y="169"
   width="137.66701"
   height="30"
   fill="#00c8c8"
   data-original="#dce1eb"
   class=""
   id="rect167" />
	</g>
	<g
   id="g173"
   transform="matrix(0.76669502,0,0,0.76669502,52.514329,-62.499672)">
		<rect
   x="255.905"
   y="169"
   width="68.928001"
   height="30"
   fill="#00c8c1"
   data-original="#cdd2e1"
   class=""
   id="rect171" />
	</g>
	<g
   id="g177"
   transform="matrix(0.76669502,0,0,0.76669502,52.514329,-62.499672)">
		<rect
   x="187.16701"
   y="224.37199"
   width="137.66701"
   height="30"
   fill="#00c8c8"
   data-original="#dce1eb"
   class=""
   id="rect175" />
	</g>
	<g
   id="g181"
   transform="matrix(0.76669502,0,0,0.76669502,52.514329,-62.499672)">
		<rect
   x="255.905"
   y="224.37199"
   width="68.928001"
   height="30"
   fill="#00c8c1"
   data-original="#cdd2e1"
   class=""
   id="rect179" />
	</g>
<g
   aria-label="LISTWOO"
   id="text6896"
   style="font-size:129.73px;line-height:1.25;font-family:'Berlin Sans FB Demi';-inkscape-font-specification:'Berlin Sans FB Demi';fill:#9fc8f2;stroke-width:1.35135"
   transform="translate(0,-40.540544)"><g
     id="text9798"
     style="font-size:54.0541px;font-family:'Brush Script MT';-inkscape-font-specification:'Brush Script MT';stroke-width:1.82615" /><g
     aria-label="LISTWOO"
     id="text10396"
     style="font-family:'Brush Script MT';-inkscape-font-specification:'Brush Script MT';stroke-width:1.82615"><path
       d="m 44.593303,456.90288 q -5.447646,0 -14.189218,-0.25338 -11.402051,-0.25338 -14.189219,-0.31672 L -2.7252063,456.0794 q -2.8505126,0.0633 -8.1714697,-0.25338 -1.836997,-0.31672 -1.836997,-1.96369 0,-6.90457 0.190034,-20.65038 0.253379,-13.80915 0.253379,-20.71372 0,-7.34799 -0.443413,-21.98062 -0.443413,-14.69598 -0.443413,-22.04397 0,-1.39358 1.900342,-1.39358 1.9003416,0 5.6376804,0.19003 3.8006834,0.19004 5.63768044,0.19004 2.09037586,0 6.20778296,-0.19004 4.1174072,-0.25337 6.2077832,-0.25337 0.950171,0 0.886826,1.20355 l -0.06334,0.82348 q -0.760136,11.9088 -1.710307,35.78977 l -0.06334,16.723 q 0,8.10813 0.06334,11.84547 0.06334,0.76013 0.126689,1.52027 0.06334,0.76014 0.950171,0.95017 0.06334,0 1.646963,0 5.701025,0 17.039731,-0.5701 11.40205,-0.63345 17.103075,-0.63345 1.710308,0 1.710308,1.45693 0,10.83195 -1.583618,18.68669 -0.316724,1.64697 -1.330239,1.96369 -0.316724,0.12669 -2.597134,0.12669 z"
       style="font-family:'Berlin Sans FB Demi';-inkscape-font-specification:'Berlin Sans FB Demi';fill:#495f7a"
       id="path23015" /><path
       d="m 83.04355,409.01427 q 0,7.47468 0.380068,22.48738 0.380069,15.01269 0.380069,22.48737 0,1.2669 -0.570103,1.58362 -0.126689,0.0634 -1.646963,0.25338 -4.117407,0.50676 -11.021982,0.50676 -9.24833,0 -11.782119,-0.50676 -1.836997,-0.38007 -1.836997,-1.96369 0,1.01352 0.570103,-11.14867 1.140205,-25.65461 1.140205,-33.69939 0,-6.77789 -0.443413,-20.33366 -0.443413,-13.55577 -0.443413,-20.33366 0,-1.39358 1.456929,-1.39358 1.963686,0 5.891059,0.19004 3.990718,0.19003 5.954404,0.19003 1.963686,0 5.76437,-0.19003 3.864028,-0.19004 5.827715,-0.19004 1.836997,0 1.836997,1.39358 0,6.77789 -0.760137,20.33366 -0.696792,13.55577 -0.696792,20.33366 z"
       style="font-family:'Berlin Sans FB Demi';-inkscape-font-specification:'Berlin Sans FB Demi';fill:#495f7a"
       id="path23017" /><path
       d="m 139.16698,426.68745 q 0,12.85898 -10.83195,22.04396 -9.50171,8.10812 -23.12083,10.32519 -0.50675,0.0633 -0.82348,0.0633 -1.45693,0 -6.46116,-8.86826 -5.004233,-8.9316 -5.004233,-10.89529 0,-0.69679 0.950171,-0.88683 9.184982,-2.09037 12.162182,-3.5473 6.58786,-3.29393 6.58786,-9.75509 0,-4.1174 -4.30745,-9.18498 -7.47467,-8.61488 -8.10812,-9.56506 -4.370786,-6.58785 -4.370786,-14.56928 0,-11.59209 10.705256,-19.2568 8.74157,-6.33447 21.47386,-8.23481 0.6968,-0.0634 1.07686,-0.0634 0.95018,0 1.52028,1.52028 1.64696,4.62416 7.66471,16.723 0.19003,0.38007 0.19003,0.63345 0,1.07686 -1.1402,1.07686 -0.50676,0 -1.71031,-0.19003 -1.20355,-0.19004 -1.837,-0.19004 -4.56082,0 -7.98143,2.09038 -4.11741,2.4071 -4.11741,6.71454 0,3.86403 4.56082,9.50171 8.04478,10.13515 8.42485,10.64191 4.49748,6.96792 4.49748,13.8725 z"
       style="font-family:'Berlin Sans FB Demi';-inkscape-font-specification:'Berlin Sans FB Demi';fill:#495f7a"
       id="path23019" /><path
       d="m 211.37997,386.33686 q 0,1.26689 -1.39359,1.26689 -2.4071,0 -19.06676,-0.95017 -0.38007,16.02622 -0.38007,22.36069 0,7.47468 0.5701,22.48738 0.63345,15.01269 0.63345,22.48737 0,1.20355 -0.5701,1.52028 -0.19003,0.12669 -1.77365,0.31672 -3.80069,0.50676 -11.14867,0.50676 -8.17147,0 -11.4654,-0.50676 -1.77365,-0.31672 -1.77365,-1.96369 0,-7.47467 0.63345,-22.42403 0.63344,-14.94935 0.63344,-22.42403 0,-4.94089 -0.50676,-22.04397 -12.66894,1.2669 -20.20696,1.2669 -1.01352,0 -1.01352,-0.63345 0,-0.82348 0.88683,-4.87754 1.01351,-4.43413 1.1402,-5.3843 0.19004,-2.97721 0.44342,-5.95441 0.44341,-4.75085 1.52027,-4.75085 0.12669,0 0.88683,0.0633 10.26184,1.33024 30.34212,1.33024 5.70102,0 21.03045,-1.20355 8.23481,-0.63345 8.29816,-0.63345 1.26689,0 1.45693,0.19004 0.19003,0.12669 0.25337,1.20355 0,1.71031 -0.12669,4.75085 -0.12668,3.35727 -0.12668,4.75086 0,1.58361 0.38006,4.68751 0.44342,3.04054 0.44342,4.56082 z"
       style="font-family:'Berlin Sans FB Demi';-inkscape-font-specification:'Berlin Sans FB Demi';fill:#495f7a"
       id="path23021" /><path
       d="m 330.65808,399.38587 q 0,0.19003 -11.78212,25.52792 -11.97215,25.84465 -13.68246,29.07523 -0.5701,1.14021 -0.69679,1.2669 -0.25338,0.31672 -1.20355,0.5701 -1.58362,0.38007 -8.99495,0.38007 -6.90457,0 -8.42485,-0.38007 -1.26689,-0.31672 -1.52027,-0.50676 -0.25338,-0.19003 -0.82348,-1.20355 -0.38007,-0.69679 -3.61065,-8.9316 l -6.90458,-17.60984 -7.03126,17.79987 q -1.07686,3.04055 -3.54731,8.74157 -0.63344,1.07686 -0.88682,1.33024 -0.25338,0.19004 -1.45693,0.38007 -2.15372,0.38007 -8.29816,0.38007 -7.60137,0 -9.12164,-0.38007 -1.07686,-0.25338 -1.77365,-1.837 -24.83113,-50.9925 -24.83113,-54.60315 0,-5.06758 0.31672,-15.13939 0.38007,-10.13516 0.38007,-15.20273 0,-2.09038 1.26689,-2.09038 3.61065,0 10.8953,0.31672 7.34798,0.31673 11.02198,0.31673 1.45693,0 1.45693,1.20355 0,5.06758 -0.50676,15.32942 -0.44342,10.1985 -0.44342,15.26608 0,1.90034 4.62417,12.09884 4.18075,9.12164 6.08109,12.35222 0.95017,1.64697 1.2669,1.64697 0.50676,0 2.59713,-6.0811 5.95441,-17.03973 6.0811,-20.14362 0.25337,-5.82771 0.0633,-14.82267 -0.19003,-12.98566 -0.19003,-14.88601 0,-1.20355 0.19003,-1.39358 0.19003,-0.25338 1.39358,-0.44341 3.23058,-0.38007 11.14868,-0.38007 12.09884,0 12.09884,1.71031 0,4.24409 -0.31673,13.1757 -0.31672,8.67823 -0.25337,13.1757 v 3.23058 q 0,3.23058 6.5245,20.58704 2.21707,6.01775 2.66048,6.01775 0.31672,0 1.26689,-1.64697 1.77366,-3.10389 5.70103,-12.28887 4.37079,-10.00847 4.37079,-11.90881 0,-5.13092 -0.50676,-15.32942 -0.44342,-10.26185 -0.44342,-15.32943 0,-1.1402 1.45693,-1.1402 3.73734,0 11.21202,-0.31673 7.53802,-0.31672 11.27536,-0.31672 1.20355,0 1.20355,2.53379 0,5.00423 0.31672,15.0127 0.38007,9.94512 0.38007,14.88601 z"
       style="font-family:'Berlin Sans FB Demi';-inkscape-font-specification:'Berlin Sans FB Demi';fill:#495f7a"
       id="path23023" /><path
       d="m 427.95556,411.48471 q 0,19.76356 -12.6056,33.12929 -12.85898,13.55577 -32.55918,13.55577 -19.57352,0 -32.49585,-13.68246 -12.66894,-13.36573 -12.66894,-33.0026 0,-19.70021 12.66894,-33.12929 12.92233,-13.7458 32.49585,-13.7458 19.44683,0 32.43249,13.7458 12.73229,13.55577 12.73229,33.12929 z m -24.00765,-0.12669 q 0,-9.50171 -5.76437,-16.1529 -6.01775,-6.96792 -15.39276,-6.96792 -8.93161,0 -15.13939,7.2213 -6.01775,6.96792 -6.01775,16.02621 0,9.69174 5.63768,16.15291 5.9544,6.77788 15.51946,6.77788 8.9316,0 15.20273,-7.15795 5.9544,-6.84123 5.9544,-15.89953 z"
       style="font-family:'Berlin Sans FB Demi';-inkscape-font-specification:'Berlin Sans FB Demi';fill:#495f7a"
       id="path23025" /><path
       d="m 525.37976,411.48471 q 0,19.76356 -12.6056,33.12929 -12.85898,13.55577 -32.55919,13.55577 -19.57352,0 -32.49584,-13.68246 -12.66895,-13.36573 -12.66895,-33.0026 0,-19.70021 12.66895,-33.12929 12.92232,-13.7458 32.49584,-13.7458 19.44683,0 32.4325,13.7458 12.73229,13.55577 12.73229,33.12929 z m -24.00765,-0.12669 q 0,-9.50171 -5.76437,-16.1529 -6.01775,-6.96792 -15.39277,-6.96792 -8.93161,0 -15.13939,7.2213 -6.01775,6.96792 -6.01775,16.02621 0,9.69174 5.63768,16.15291 5.95441,6.77788 15.51946,6.77788 8.93161,0 15.20273,-7.15795 5.95441,-6.84123 5.95441,-15.89953 z"
       style="font-family:'Berlin Sans FB Demi';-inkscape-font-specification:'Berlin Sans FB Demi';fill:#495f7a"
       id="path23027" /></g></g></g>















</g><path
     style="fill:#9fc8f2;fill-opacity:0;stroke-width:0.633663"
     d="M 64,238 V 46 H 256 448 V 238 430 H 256 64 Z m 288.31683,0 V 120.13861 h -24.71287 -24.71287 v -4.75247 -4.75248 H 256 209.10891 v 4.75248 4.75247 H 184.39604 159.68317 V 238 355.86139 H 256 352.31683 Z"
     id="path3322" /><path
     style="fill:#9fc8f2;fill-opacity:0;stroke-width:0.633663"
     d="M 64,238 V 46 H 256 448 V 238 430 H 256 64 Z m 288.31683,0 V 120.13861 h -24.71287 -24.71287 v -4.75247 -4.75248 H 256 209.10891 v 4.75248 4.75247 H 184.39604 159.68317 V 238 355.86139 H 256 352.31683 Z"
     id="path3361" /><path
     style="opacity:0;fill:#9fc8f2;fill-opacity:0;stroke-width:0.633663"
     d="M 64,238 V 46 H 256 448 V 238 430 H 256 64 Z m 288.31683,0 V 120.13861 h -24.71287 -24.71287 v -4.75247 -4.75248 H 256 209.10891 v 4.75248 4.75247 H 184.39604 159.68317 V 238 355.86139 H 256 352.31683 Z"
     id="path3400" /><path
     style="opacity:0;fill:#9fc8f2;fill-opacity:0;stroke-width:0.633663"
     d="M 64,238 V 46 H 256 448 V 238 430 H 256 64 Z m 288.31683,0 V 120.13861 h -24.71287 -24.71287 v -4.75247 -4.75248 H 256 209.10891 v 4.75248 4.75247 H 184.39604 159.68317 V 238 355.86139 H 256 352.31683 Z"
     id="path4327" /><path
     style="opacity:0;fill:#9fc8f2;fill-opacity:0;stroke-width:0.633663"
     d="M 64,238 V 46 H 256 448 V 238 430 H 256 64 Z m 288.31683,0 V 120.13861 h -24.71287 -24.71287 v -4.75247 -4.75248 H 256 209.10891 v 4.75248 4.75247 H 184.39604 159.68317 V 238 355.86139 H 256 352.31683 Z"
     id="path4366" /><path
     style="opacity:0;fill:#9fc8f2;fill-opacity:0;stroke-width:0.633663"
     d="M 64,238 V 46 H 256 448 V 238 430 H 256 64 Z"
     id="path4405" /><path
     style="opacity:0;fill:#9fc8f2;fill-opacity:0.821293;stroke-width:0.633663"
     d="M 64,238 V 46 H 256 448 V 238 430 H 256 64 Z"
     id="path4444" /><path
     style="opacity:0;fill:#9fc8f2;fill-opacity:0.821293;stroke-width:0.633663"
     d="M 64,238 V 46 H 256 448 V 238 430 H 256 64 Z"
     id="path4705" /><path
     style="opacity:0;fill:#9fc8f2;fill-opacity:0.821293;stroke-width:0.633663"
     d="M 64,238 V 46 H 256 448 V 238 430 H 256 64 Z"
     id="path4744" /></svg>
