<?xml version="1.0"?>
<svg xmlns="http://www.w3.org/2000/svg" xmlns:xlink="http://www.w3.org/1999/xlink" xmlns:svgjs="http://svgjs.com/svgjs" version="1.1" width="512" height="512" x="0" y="0" viewBox="0 0 512 512" style="enable-background:new 0 0 512 512" xml:space="preserve" class=""><rect width="512" height="512" fill="#9fc8f2" shape="square" transform="matrix(0.75,0,0,0.75,64,64)"/><g transform="matrix(0.74,0,0,0.74,66.56,66.56)">
<g xmlns="http://www.w3.org/2000/svg">
	<g>
		<g>
			<g>
				<g>
					<g>
						<g>
							<g>
								<g>
									<g>
										<g>
											<circle style="" cx="256" cy="256" r="256" fill="#9fc8f2" data-original="#00c8c8" class=""/>
										</g>
									</g>
								</g>
							</g>
						</g>
					</g>
				</g>
			</g>
		</g>
	</g>
	<path style="" d="M512,256c0-11.765-0.811-23.338-2.347-34.682L385.673,97.339l-21.063,32.938l-45.944-45.943   l-192.34,330.328l94.992,94.992C232.662,511.189,244.235,512,256,512C397.385,512,512,397.385,512,256z" fill="#9fc8f0" data-original="#00b5b0" class=""/>
	<g>
		<rect x="126.327" y="97.339" style="" width="259.346" height="317.322" fill="#495f7a" data-original="#495f7a" class=""/>
	</g>
	<g>
		<rect x="255.905" y="97.339" style="" width="129.769" height="317.322" fill="#495f7a" data-original="#31465b" class=""/>
	</g>
	<g>
		<rect x="160.333" y="97.339" style="" width="191.333" height="284.067" fill="#ffffff" data-original="#ffffff" class=""/>
	</g>
	<g>
		<rect x="255.905" y="97.339" style="" width="95.762" height="284.067" fill="#ffffff" data-original="#e9edf5" class=""/>
	</g>
	<g>
		<rect x="219.033" y="284.377" style="" width="73.935" height="73.934" fill="#00c8c8" data-original="#dce1eb" class=""/>
	</g>
	<g>
		<rect x="255.905" y="284.377" style="" width="37.063" height="73.935" fill="#00c8c1" data-original="#cdd2e1" class=""/>
	</g>
	<g>
		<polygon style="" points="239.166,360.222 205.501,326.556 226.714,305.343 239.166,317.795 285.286,271.674     306.499,292.887   " fill="#495f7a" data-original="#ff583e" class=""/>
	</g>
	<g>
		<polygon style="" points="285.286,271.674 255.905,301.056 255.905,343.482 306.499,292.887   " fill="#495f7a" data-original="#ef2a1b" class=""/>
	</g>
	<g>
		<rect x="193.333" y="84.333" style="" width="125.333" height="46.667" fill="#495f7a" data-original="#ff583e" class=""/>
	</g>
	<g>
		<rect x="255.905" y="84.333" style="" width="62.762" height="46.667" fill="#495f7a" data-original="#ef2a1b" class=""/>
	</g>
	<g>
		<rect x="187.167" y="169" style="" width="137.667" height="30" fill="#00c8c8" data-original="#dce1eb" class=""/>
	</g>
	<g>
		<rect x="255.905" y="169" style="" width="68.928" height="30" fill="#00c8c1" data-original="#cdd2e1" class=""/>
	</g>
	<g>
		<rect x="187.167" y="224.372" style="" width="137.667" height="30" fill="#00c8c8" data-original="#dce1eb" class=""/>
	</g>
	<g>
		<rect x="255.905" y="224.372" style="" width="68.928" height="30" fill="#00c8c1" data-original="#cdd2e1" class=""/>
	</g>
</g>















</g></svg>
