<?xml version="1.0" encoding="UTF-8" standalone="no"?>
<svg
   version="1.1"
   width="512"
   height="512"
   x="0"
   y="0"
   viewBox="0 0 512 512"
   style="enable-background:new 0 0 512 512"
   xml:space="preserve"
   class=""
   id="svg187"
   sodipodi:docname="listwoo_alpha_icon.svg"
   inkscape:version="1.1.1 (3bf5ae0d25, 2021-09-20)"
   xmlns:inkscape="http://www.inkscape.org/namespaces/inkscape"
   xmlns:sodipodi="http://sodipodi.sourceforge.net/DTD/sodipodi-0.dtd"
   xmlns="http://www.w3.org/2000/svg"
   xmlns:svg="http://www.w3.org/2000/svg"><defs
     id="defs191" /><sodipodi:namedview
     id="namedview189"
     pagecolor="#ffffff"
     bordercolor="#666666"
     borderopacity="1.0"
     inkscape:pageshadow="2"
     inkscape:pageopacity="0.0"
     inkscape:pagecheckerboard="0"
     showgrid="false"
     inkscape:zoom="1.578125"
     inkscape:cx="123.24752"
     inkscape:cy="256"
     inkscape:window-width="1920"
     inkscape:window-height="1046"
     inkscape:window-x="-11"
     inkscape:window-y="-11"
     inkscape:window-maximized="1"
     inkscape:current-layer="g183" /><rect
     width="512"
     height="512"
     fill="#9fc8f2"
     shape="square"
     transform="matrix(0.75,0,0,0.75,64,64)"
     id="rect101"
     x="0"
     y="0"
     style="fill:#2dc8f2;fill-opacity:0" /><g
     transform="matrix(0.74,0,0,0.74,66.56,66.56)"
     id="g185">
<g
   id="g183">
	<g
   id="g123">
		<g
   id="g121">
			<g
   id="g119">
				<g
   id="g117">
					<g
   id="g115">
						<g
   id="g113">
							<g
   id="g111">
								<g
   id="g109">
									<g
   id="g107">
										<g
   id="g105">
											<circle
   style="fill:#9fc8f2;fill-opacity:0"
   cx="256"
   cy="256"
   r="256"
   fill="#9fc8f2"
   data-original="#00c8c8"
   class=""
   id="circle103" />
										</g>
									</g>
								</g>
							</g>
						</g>
					</g>
				</g>
			</g>
		</g>
	</g>
	<path
   style="fill:#9fc8f0;fill-opacity:0"
   d="M512,256c0-11.765-0.811-23.338-2.347-34.682L385.673,97.339l-21.063,32.938l-45.944-45.943   l-192.34,330.328l94.992,94.992C232.662,511.189,244.235,512,256,512C397.385,512,512,397.385,512,256z"
   fill="#9fc8f0"
   data-original="#00b5b0"
   class=""
   id="path125" />
	<g
   id="g129">
		<rect
   x="126.327"
   y="97.339"
   style=""
   width="259.346"
   height="317.322"
   fill="#495f7a"
   data-original="#495f7a"
   class=""
   id="rect127" />
	</g>
	<g
   id="g133">
		<rect
   x="255.905"
   y="97.339"
   style=""
   width="129.769"
   height="317.322"
   fill="#495f7a"
   data-original="#31465b"
   class=""
   id="rect131" />
	</g>
	<g
   id="g137">
		<rect
   x="160.333"
   y="97.339"
   style=""
   width="191.333"
   height="284.067"
   fill="#ffffff"
   data-original="#ffffff"
   class=""
   id="rect135" />
	</g>
	<g
   id="g141">
		<rect
   x="255.905"
   y="97.339"
   style=""
   width="95.762"
   height="284.067"
   fill="#ffffff"
   data-original="#e9edf5"
   class=""
   id="rect139" />
	</g>
	<g
   id="g145">
		<rect
   x="219.033"
   y="284.377"
   style=""
   width="73.935"
   height="73.934"
   fill="#00c8c8"
   data-original="#dce1eb"
   class=""
   id="rect143" />
	</g>
	<g
   id="g149">
		<rect
   x="255.905"
   y="284.377"
   style=""
   width="37.063"
   height="73.935"
   fill="#00c8c1"
   data-original="#cdd2e1"
   class=""
   id="rect147" />
	</g>
	<g
   id="g153">
		<polygon
   style=""
   points="239.166,360.222 205.501,326.556 226.714,305.343 239.166,317.795 285.286,271.674     306.499,292.887   "
   fill="#495f7a"
   data-original="#ff583e"
   class=""
   id="polygon151" />
	</g>
	<g
   id="g157">
		<polygon
   style=""
   points="285.286,271.674 255.905,301.056 255.905,343.482 306.499,292.887   "
   fill="#495f7a"
   data-original="#ef2a1b"
   class=""
   id="polygon155" />
	</g>
	<g
   id="g161">
		<rect
   x="193.333"
   y="84.333"
   style=""
   width="125.333"
   height="46.667"
   fill="#495f7a"
   data-original="#ff583e"
   class=""
   id="rect159" />
	</g>
	<g
   id="g165">
		<rect
   x="255.905"
   y="84.333"
   style=""
   width="62.762"
   height="46.667"
   fill="#495f7a"
   data-original="#ef2a1b"
   class=""
   id="rect163" />
	</g>
	<g
   id="g169">
		<rect
   x="187.167"
   y="169"
   style=""
   width="137.667"
   height="30"
   fill="#00c8c8"
   data-original="#dce1eb"
   class=""
   id="rect167" />
	</g>
	<g
   id="g173">
		<rect
   x="255.905"
   y="169"
   style=""
   width="68.928"
   height="30"
   fill="#00c8c1"
   data-original="#cdd2e1"
   class=""
   id="rect171" />
	</g>
	<g
   id="g177">
		<rect
   x="187.167"
   y="224.372"
   style=""
   width="137.667"
   height="30"
   fill="#00c8c8"
   data-original="#dce1eb"
   class=""
   id="rect175" />
	</g>
	<g
   id="g181">
		<rect
   x="255.905"
   y="224.372"
   style=""
   width="68.928"
   height="30"
   fill="#00c8c1"
   data-original="#cdd2e1"
   class=""
   id="rect179" />
	</g>
</g>















</g><path
     style="fill:#9fc8f2;fill-opacity:0;stroke-width:0.633663"
     d="M 64,256 V 64 H 256 448 V 256 448 H 256 64 Z m 288.31683,0 V 138.13861 h -24.71287 -24.71287 v -4.75247 -4.75248 H 256 209.10891 v 4.75248 4.75247 H 184.39604 159.68317 V 256 373.86139 H 256 352.31683 Z"
     id="path3322" /><path
     style="fill:#9fc8f2;fill-opacity:0;stroke-width:0.633663"
     d="M 64,256 V 64 H 256 448 V 256 448 H 256 64 Z m 288.31683,0 V 138.13861 h -24.71287 -24.71287 v -4.75247 -4.75248 H 256 209.10891 v 4.75248 4.75247 H 184.39604 159.68317 V 256 373.86139 H 256 352.31683 Z"
     id="path3361" /><path
     style="fill:#9fc8f2;fill-opacity:0;stroke-width:0.633663;opacity:0"
     d="M 64,256 V 64 H 256 448 V 256 448 H 256 64 Z m 288.31683,0 V 138.13861 h -24.71287 -24.71287 v -4.75247 -4.75248 H 256 209.10891 v 4.75248 4.75247 H 184.39604 159.68317 V 256 373.86139 H 256 352.31683 Z"
     id="path3400" /><path
     style="opacity:0;fill:#9fc8f2;fill-opacity:0;stroke-width:0.633663"
     d="M 64,256 V 64 H 256 448 V 256 448 H 256 64 Z m 288.31683,0 V 138.13861 h -24.71287 -24.71287 v -4.75247 -4.75248 H 256 209.10891 v 4.75248 4.75247 H 184.39604 159.68317 V 256 373.86139 H 256 352.31683 Z"
     id="path4327" /><path
     style="opacity:0;fill:#9fc8f2;fill-opacity:0;stroke-width:0.633663"
     d="M 64,256 V 64 H 256 448 V 256 448 H 256 64 Z m 288.31683,0 V 138.13861 h -24.71287 -24.71287 v -4.75247 -4.75248 H 256 209.10891 v 4.75248 4.75247 H 184.39604 159.68317 V 256 373.86139 H 256 352.31683 Z"
     id="path4366" /><path
     style="opacity:0;fill:#9fc8f2;fill-opacity:0;stroke-width:0.633663"
     d="M 64,256 V 64 H 256 448 V 256 448 H 256 64 Z"
     id="path4405" /><path
     style="opacity:0;fill:#9fc8f2;fill-opacity:0.8212927;stroke-width:0.633663"
     d="M 64,256 V 64 H 256 448 V 256 448 H 256 64 Z"
     id="path4444" /><path
     style="opacity:0;fill:#9fc8f2;fill-opacity:0.821293;stroke-width:0.633663"
     d="M 64,256 V 64 H 256 448 V 256 448 H 256 64 Z"
     id="path4705" /><path
     style="opacity:0;fill:#9fc8f2;fill-opacity:0.821293;stroke-width:0.633663"
     d="M 64,256 V 64 H 256 448 V 256 448 H 256 64 Z"
     id="path4744" /></svg>
